<svg width="20" height="20" viewBox="0 0 20 20" fill="none" xmlns="http://www.w3.org/2000/svg">
<path fill-rule="evenodd" clip-rule="evenodd" d="M14.325 0.1825C14.2079 0.0656638 14.0492 3.51487e-05 13.8838 0L6.11625 0C5.95081 3.51487e-05 5.79213 0.0656638 5.675 0.1825L0.1825 5.675C0.0656638 5.79213 3.51487e-05 5.95081 0 6.11625L0 13.8838C3.51487e-05 14.0492 0.0656638 14.2079 0.1825 14.325L5.675 19.8175C5.79213 19.9343 5.95081 20 6.11625 20H13.8838C14.0492 20 14.2079 19.9343 14.325 19.8175L19.8175 14.325C19.9343 14.2079 20 14.0492 20 13.8838V6.11625C20 5.95081 19.9343 5.79213 19.8175 5.675L14.325 0.1825ZM14.8175 6.0675C14.9349 5.95014 15.0008 5.79097 15.0008 5.625C15.0008 5.45903 14.9349 5.29986 14.8175 5.1825C14.7001 5.06514 14.541 4.99921 14.375 4.99921C14.209 4.99921 14.0499 5.06514 13.9325 5.1825L10 9.11625L6.0675 5.1825C6.00939 5.12439 5.9404 5.07829 5.86448 5.04685C5.78856 5.0154 5.70718 4.99921 5.625 4.99921C5.54282 4.99921 5.46144 5.0154 5.38552 5.04685C5.3096 5.07829 5.24061 5.12439 5.1825 5.1825C5.12439 5.24061 5.07829 5.3096 5.04685 5.38552C5.0154 5.46144 4.99921 5.54282 4.99921 5.625C4.99921 5.70718 5.0154 5.78856 5.04685 5.86448C5.07829 5.9404 5.12439 6.00939 5.1825 6.0675L9.11625 10L5.1825 13.9325C5.06514 14.0499 4.99921 14.209 4.99921 14.375C4.99921 14.541 5.06514 14.7001 5.1825 14.8175C5.29986 14.9349 5.45903 15.0008 5.625 15.0008C5.79097 15.0008 5.95014 14.9349 6.0675 14.8175L10 10.8837L13.9325 14.8175C13.9906 14.8756 14.0596 14.9217 14.1355 14.9532C14.2114 14.9846 14.2928 15.0008 14.375 15.0008C14.4572 15.0008 14.5386 14.9846 14.6145 14.9532C14.6904 14.9217 14.7594 14.8756 14.8175 14.8175C14.8756 14.7594 14.9217 14.6904 14.9532 14.6145C14.9846 14.5386 15.0008 14.4572 15.0008 14.375C15.0008 14.2928 14.9846 14.2114 14.9532 14.1355C14.9217 14.0596 14.8756 13.9906 14.8175 13.9325L10.8837 10L14.8175 6.0675Z" fill="#DC3545"/>
</svg>
