<svg width="20" height="18" viewBox="0 0 20 18" fill="none" xmlns="http://www.w3.org/2000/svg">
<path fill-rule="evenodd" clip-rule="evenodd" d="M11.2275 0.957516C11.1038 0.741971 10.9253 0.562891 10.7103 0.438357C10.4952 0.313823 10.251 0.248245 10.0025 0.248245C9.75395 0.248245 9.50982 0.313823 9.29473 0.438357C9.07965 0.562891 8.90123 0.741971 8.77749 0.957516L0.206242 15.5413C-0.365008 16.5138 0.319991 17.75 1.43124 17.75H18.5725C19.6837 17.75 20.37 16.5125 19.7975 15.5413L11.2275 0.957516ZM9.99999 5.25002C9.842 5.25011 9.68578 5.28329 9.54139 5.34743C9.39701 5.41156 9.26766 5.50524 9.16167 5.62241C9.05569 5.73958 8.97542 5.87765 8.92605 6.02772C8.87667 6.1778 8.85928 6.33656 8.87499 6.49377L9.31249 10.8775C9.32719 11.0497 9.40599 11.2102 9.5333 11.3271C9.66061 11.444 9.82715 11.5088 9.99999 11.5088C10.1728 11.5088 10.3394 11.444 10.4667 11.3271C10.594 11.2102 10.6728 11.0497 10.6875 10.8775L11.125 6.49377C11.1407 6.33656 11.1233 6.1778 11.0739 6.02772C11.0246 5.87765 10.9443 5.73958 10.8383 5.62241C10.7323 5.50524 10.603 5.41156 10.4586 5.34743C10.3142 5.28329 10.158 5.25011 9.99999 5.25002ZM10.0025 12.75C9.67097 12.75 9.35303 12.8817 9.11861 13.1161C8.88419 13.3506 8.75249 13.6685 8.75249 14C8.75249 14.3315 8.88419 14.6495 9.11861 14.8839C9.35303 15.1183 9.67097 15.25 10.0025 15.25C10.334 15.25 10.652 15.1183 10.8864 14.8839C11.1208 14.6495 11.2525 14.3315 11.2525 14C11.2525 13.6685 11.1208 13.3506 10.8864 13.1161C10.652 12.8817 10.334 12.75 10.0025 12.75Z" fill="#FFC107"/>
</svg>
